# AST/ASF file generated using VICON BodyLanguage
# -----------------------------------------------
:version 1.10
:name VICON
:units
  mass 1.0
  length 0.45
  angle deg
:documentation
   .ast/.asf automatically generated from VICON data using
   VICON BodyBuilder and BodyLanguage model FoxedUp or BRILLIANT.MOD
:root
   order TX TY TZ RX RY RZ
   axis XYZ
   position 0 0 0  
   orientation 0 0 0 
:bonedata
  begin
     id 1 
     name lhipjoint
     direction 0.573633 -0.743009 0.344793 
     length 2.46257 
     axis 0 0 0  XYZ
  end
  begin
     id 2 
     name lfemur
     direction 0.34202 -0.939693 0  
     length 7.3842  
     axis 0 0 20  XYZ
    dof rx ry rz
    limits (-160.0 20.0)
           (-70.0 70.0)
           (-60.0 70.0)
  end
  begin
     id 3 
     name ltibia
     direction 0.34202 -0.939693 0   
     length 7.50407   
     axis 0 0 20   XYZ
    dof rx
    limits (-10.0 170.0)
  end
  begin
     id 4 
     name lfoot
     direction 0.110749 -0.304281 0.946123   
     length 1.95925   
     axis -90 7.62852e-016 20   XYZ
    dof rx rz
    limits (-45.0 90.0)
           (-70.0 20.0)
  end
  begin
     id 5 
     name ltoes
     direction 1.53554e-011 -4.21843e-011 1   
     length 0.978318   
     axis -90 7.62852e-016 20   XYZ
    dof rx
    limits (-90.0 20.0)
  end
  begin
     id 6 
     name rhipjoint
     direction -0.488109 -0.791693 0.367385   
     length 2.31113  
     axis 0 0 0  XYZ 
  end
  begin
     id 7 
     name rfemur
     direction -0.34202 -0.939693 0   
     length 7.40965   
     axis 0 0 -20   XYZ
    dof rx ry rz
    limits (-160.0 20.0)
           (-70.0 70.0)
           (-70.0 60.0)
  end
  begin
     id 8 
     name rtibia
     direction -0.34202 -0.939693 0   
     length 7.55548   
     axis 0 0 -20   XYZ
    dof rx
    limits (-10.0 170.0)
 end
 begin
     id 9 
     name rfoot
     direction -0.127594 -0.350561 0.927808   
     length 2.07199  
     axis -90 -7.62852e-016 -20   XYZ
    dof rx rz
    limits (-45.0 90.0)
           (-20.0 70.0)
  end
  begin
     id 10 
     name rtoes
     direction -1.53542e-011 -4.21909e-011 1   
     length 1.02667   
     axis -90 -7.62852e-016 -20   XYZ
    dof rx
    limits (-90.0 20.0)
  end
  begin
     id 11 
     name lowerback
     direction -0.0103342 0.997298 -0.0727278   
     length 2.02836   
     axis 0 0 0   XYZ
    dof rx ry rz
    limits (-20.0 45.0)
           (-30.0 30.0)
           (-30.0 30.0)
  end
  begin
     id 12 
     name upperback
     direction 0.0171146 0.999786 -0.011606   
     length 2.03179   
     axis 0 0 0   XYZ
    dof rx ry rz
    limits (-20.0 45.0)
           (-30.0 30.0)
           (-30.0 30.0)
  end
  begin
     id 13 
     name thorax
     direction 0.0216927 0.999513 0.0224343   
     length 2.03882   
     axis 0 0 0   XYZ
    dof rx ry rz
    limits (-20.0 45.0)
           (-30.0 30.0)
           (-30.0 30.0)
  end
  begin
     id 14 
     name lowerneck
     direction 0.000989287 0.993907 0.110221   
     length 1.75428   
     axis 0 0 0   XYZ
    dof rx ry rz
    limits (-20.0 45.0)
           (-30.0 30.0)
           (-30.0 30.0)
  end
  begin
     id 15 
     name upperneck
     direction -0.0172474 0.994813 -0.100253   
     length 1.77058   
     axis 0 0 0   XYZ
    dof rx ry rz
    limits (-20.0 45.0)
           (-30.0 30.0)
           (-30.0 30.0)
  end
  begin
     id 16
     name head
     direction -0.00486455 0.99894 -0.0457663  
     length 1.77427  
     axis 0 0 0   XYZ
    dof rx ry rz
    limits (-20.0 45.0)
           (-30.0 30.0)
           (-30.0 30.0)
  end
  begin
     id 17 
     name lclavicle
     direction 0.927314 0.333734 -0.169441  
     length 3.97584  
     axis 0 0 0   XYZ
    dof ry rz
    limits (-20.0 10.0)
           (0.0 20.0)
  end
  begin
     id 18 
     name lhumerus
     direction 1 -4.48965e-011 -3.25313e-028   
     length 4.76468   
     axis 180 -30 -90   XYZ
    dof rx ry rz
    limits (-60.0 90.0)
           (-90.0 90.0)
           (-90.0 90.0)
  end
  begin
     id 19
     name lradius
     direction 1 -4.48969e-011 -2.8465e-028   
     length 3.52712   
     axis -180 -30 -90   XYZ
    dof rx
    limits (-10.0 170.0)
  end
  begin
     id 20
     name lwrist
     direction 1 -4.4896e-011 -7.78665e-028   
     length 1.76356   
     axis 1.91374e-015 90 90   XYZ
    dof ry
    limits (-180.0 0.0)
 end
  begin
     id 21 
     name lhand
     direction 1 -4.48959e-011 -1.55733e-027   
     length 0.859564   
     axis 9.9371e-016 90 90   XYZ
    dof rx rz
    limits (-90.0 90.0)
           (-45.0 45.0)
  end
  begin
     id 22 
     name lfingers
     direction 1 -4.48965e-011 -3.11466e-027   
     length 0.693002   
     axis 1.98742e-015 90 90   XYZ
    dof rx
    limits (0.0 90.0)
  end
  begin
     id 23
     name lthumb
     direction 0.707107 -6.34948e-011 0.707107   
     length 0.995017   
     axis -90 45 2.85299e-015   XYZ
    dof rx rz
    limits (-45.0 45.0)
           (-45.0 45.0)
  end
  begin
     id 24 
     name rclavicle
     direction -0.899388 0.348209 -0.264294   
     length 3.68366  
     axis 0 0 0   XYZ 
    dof ry rz
    limits (-10.0 20.0)
           (-20.0 0.0)
  end
  begin
     id 25 
     name rhumerus
     direction -1 -4.48965e-011 -3.01536e-027  
     length 4.90577   
     axis 180 30 90   XYZ
    dof rx ry rz
    limits (-90.0 60.0)
           (-90.0 90.0)
           (-90.0 90.0)
  end
  begin
     id 26 
     name rradius
     direction -1 -4.48966e-011 3.93291e-027   
     length 3.42692   
     axis -180 30 90   XYZ
    dof rx
    limits (-10.0 170.0)
  end
  begin
     id 27 
     name rwrist
     direction -1 -4.48969e-011 -7.78665e-028   
     length 1.71346   
     axis 1.91374e-015 -90 -90   XYZ
    dof ry
    limits (-180.0 0.0)
  end
  begin
     id 28
     name rhand
     direction -1 -4.48967e-011 -1.55733e-027   
     length 0.740957   
     axis 9.9371e-016 -90 -90   XYZ
    dof rx rz
    limits (-90.0 90.0)
           (-45.0 45.0)
  end
  begin
     id 29
     name rfingers
     direction -1 -4.48949e-011 -3.11466e-027   
     length 0.597378   
     axis 1.98742e-015 -90 -90   XYZ
    dof rx
    limits (0.0 90.0)
  end
  begin
     id 30
     name rthumb
     direction -0.707107 -6.34931e-011 0.707107   
     length 0.857719   
     axis -90 -45 -2.85299e-015   XYZ
    dof rx rz
    limits (-45.0 45.0)
           (-45.0 45.0)
  end
:hierarchy
  begin
    root lhipjoint rhipjoint lowerback
    lhipjoint lfemur
    lfemur ltibia
    ltibia lfoot
    lfoot ltoes
    rhipjoint rfemur
    rfemur rtibia
    rtibia rfoot
    rfoot rtoes
    lowerback upperback
    upperback thorax
    thorax lowerneck lclavicle rclavicle
    lowerneck upperneck
    upperneck head
    lclavicle lhumerus
    lhumerus lradius
    lradius lwrist
    lwrist lhand lthumb
    lhand lfingers
    rclavicle rhumerus
    rhumerus rradius
    rradius rwrist
    rwrist rhand rthumb
    rhand rfingers
  end

#!OML:ASF E:\I on waltz\AllaLogoMonkeySwing\Project 1\Capture day 1\Session 1\Subject1.ASF
:FULLY-SPECIFIED
:DEGREES
17
root -0.156179 18.0411 -27.483 2.39835 -2.86658 -0.537223
lowerback 6.23137 -1.31602 -4.16121
upperback 0.971597 -1.98001 1.9352
thorax -2.27917 -0.951579 4.50164
lowerneck -8.32245 -6.89134 -7.36897
upperneck 9.19635 -8.70199 3.38051
head 4.58622 -4.3505 1.63557
rclavicle -3.21783e-014 3.97569e-016
rhumerus -27.1915 -21.4419 -76.8636
rradius 19.1994
rwrist 10.0976
rhand -8.46185 -35.8058
rfingers 7.12502
rthumb 17.4644 -65.0413
lclavicle -3.21783e-014 3.97569e-016
lhumerus -56.2406 46.3787 46.6209
lradius 40.7441
lwrist 154.379
lhand -27.4434 6.80503
lfingers 7.12502
lthumb -0.84835 36.7831
rfemur -3.79369 -0.941921 18.7252
rtibia 18.7156
rfoot -16.8474 -8.22683
rtoes 10.1301
lfemur 2.57836 3.02509 -18.6736
ltibia 8.28412
lfoot -12.7544 1.45415
ltoes -30.4509
18
root -0.149715 18.0398 -27.4825 2.37324 -3.03633 -0.509846
lowerback 6.29526 -1.23365 -4.15999
upperback 0.966442 -1.87264 1.93256
thorax -2.33193 -0.896438 4.49252
lowerneck -8.27933 -6.91568 -7.26479
upperneck 9.2878 -8.72457 3.12648
head 4.59255 -4.37323 1.54033
rclavicle 3.70236e-015 -3.57812e-015
rhumerus -27.0807 -21.6497 -77.1833
rradius 19.1959
rwrist 10.2088
rhand -8.47551 -35.7809
rfingers 7.12502
rthumb 17.4513 -65.0175
lclavicle 3.70236e-015 -3.57812e-015
lhumerus -55.4005 45.3995 48.5134
lradius 41.5123
lwrist 156.081
lhand -28.2226 6.95687
lfingers 7.12502
lthumb -1.60092 36.9306
rfemur -3.76105 -0.864729 18.6591
rtibia 18.6727
rfoot -16.8773 -8.14465
rtoes 10.0198
lfemur 2.6088 3.00073 -18.7772
ltibia 8.29465
lfoot -12.7482 1.65029
ltoes -30.0419
19
root -0.143033 18.0392 -27.4844 2.39036 -3.16646 -0.51114
lowerback 6.36623 -1.17042 -4.16305
upperback 0.938664 -1.79042 1.97191
thorax -2.40786 -0.852648 4.53203
lowerneck -8.24881 -6.91789 -7.26232
upperneck 9.31247 -8.71225 2.96417
head 4.58722 -4.37666 1.49208
rclavicle 2.33075e-014 4.17448e-015
rhumerus -26.9119 -21.456 -77.6063
rradius 19.1474
rwrist 10.4283
rhand -8.48246 -36.0503
rfingers 7.12502
rthumb 17.4446 -65.2876
lclavicle 2.33075e-014 4.17448e-015
lhumerus -54.5755 44.4156 50.5071
lradius 42.3658
lwrist 157.741
lhand -28.72 7.0126
lfingers 7.12502
lthumb -2.08128 36.9822
rfemur -3.78804 -0.79312 18.631
rtibia 18.6573
rfoot -16.8822 -8.07804
rtoes 10.064
lfemur 2.54842 2.88123 -18.8691
ltibia 8.37841
lfoot -12.6844 1.93615
ltoes -29.8872
20
root -0.137062 18.0382 -27.4863 2.42078 -3.25931 -0.592272
lowerback 6.43279 -1.10641 -4.05797
upperback 0.910832 -1.69964 2.00222
thorax -2.48592 -0.805471 4.49975
lowerneck -8.16198 -6.91497 -7.32742
upperneck 9.26143 -8.7106 3.00777
head 4.56194 -4.3763 1.51935
rclavicle -1.8487e-014 -7.7526e-015
rhumerus -26.7325 -21.443 -78.0235
rradius 18.9867
rwrist 11.1175
rhand -8.49048 -36.1716
rfingers 7.12502
rthumb 17.4369 -65.4095
lclavicle -1.8487e-014 -7.7526e-015
lhumerus -53.6888 43.423 52.5127
lradius 43.2614
lwrist 159.286
lhand -28.8899 6.96781
lfingers 7.12502
lthumb -2.24534 36.9357
rfemur -3.82984 -0.746858 18.7076
rtibia 18.6699
rfoot -16.9335 -8.0534
rtoes 9.8384
lfemur 2.46662 2.88542 -18.8224
ltibia 8.47835
lfoot -12.6268 2.08654
ltoes -29.9482
21
root -0.133016 18.0378 -27.4881 2.45092 -3.31888 -0.75147
lowerback 6.47615 -1.04678 -3.89612
upperback 0.9146 -1.60892 2.0541
thorax -2.51899 -0.760686 4.45623
lowerneck -8.17858 -6.93851 -7.34717
upperneck 9.30397 -8.73858 3.00124
head 4.57986 -4.39114 1.5169
rclavicle 1.03865e-014 -1.98785e-016
rhumerus -26.4913 -21.931 -78.2721
rradius 18.9269
rwrist 11.4182
rhand -7.94303 -36.1637
rfingers 7.12502
rthumb 17.9637 -65.3541
lclavicle 1.03865e-014 -1.98785e-016
lhumerus -52.7401 42.5254 54.5209
lradius 44.1853
lwrist 160.696
lhand -29.082 7.10041
lfingers 7.12502
lthumb -2.43094 37.0663
rfemur -3.85693 -0.701097 18.8947
rtibia 18.6407
rfoot -16.8799 -8.08876
rtoes 9.55037
lfemur 2.3948 2.92311 -18.6495
ltibia 8.54709
lfoot -12.6173 2.13174
ltoes -29.8813
22
root -0.129416 18.0379 -27.491 2.49445 -3.34148 -0.838344
lowerback 6.50039 -1.01087 -3.81087
upperback 0.933619 -1.55466 2.09525
thorax -2.5197 -0.734606 4.44686
lowerneck -8.29885 -6.96771 -7.30891
upperneck 9.40354 -8.76245 2.88794
head 4.6249 -4.40713 1.46873
rclavicle 2.64135e-014 -2.70347e-014
rhumerus -26.1666 -21.7946 -78.7926
rradius 18.8438
rwrist 11.7738
rhand -7.79913 -36.2284
rfingers 7.12502
rthumb 18.1021 -65.406
lclavicle 2.64135e-014 -2.70347e-014
lhumerus -51.7591 41.6746 56.5695
lradius 45.214
lwrist 162.018
lhand -29.2338 7.174
lfingers 7.12502
lthumb -2.57752 37.1382
rfemur -3.91265 -0.690106 18.9886
rtibia 18.6072
rfoot -16.8008 -8.13228
rtoes 9.37187
lfemur 2.27669 2.95053 -18.5617
ltibia 8.64138
lfoot -12.6346 2.13451
ltoes -29.8032
23
root -0.125955 18.038 -27.493 2.50444 -3.32859 -0.898442
lowerback 6.54116 -0.977973 -3.72211
upperback 0.958564 -1.50538 2.10758
thorax -2.52379 -0.711128 4.40613
lowerneck -8.23691 -6.98204 -7.30755
upperneck 9.30893 -8.78567 2.89595
head 4.58693 -4.41805 1.47296
rclavicle -1.67476e-014 2.40529e-014
rhumerus -25.842 -21.5999 -79.3183
rradius 18.7046
rwrist 12.1649
rhand -7.83242 -35.9492
rfingers 7.12502
rthumb 18.0701 -65.1298
lclavicle -1.67476e-014 2.40529e-014
lhumerus -50.6919 40.6976 58.6901
lradius 46.3137
lwrist 163.285
lhand -28.915 6.90809
lfingers 7.12502
lthumb -2.26957 36.8758
rfemur -3.92832 -0.659728 19.055
rtibia 18.607
rfoot -16.7935 -8.18304
rtoes 9.44886
lfemur 2.17063 3.01955 -18.497
ltibia 8.80225
lfoot -12.7254 2.0203
ltoes -30.0089
24
root -0.12412 18.0384 -27.4945 2.48003 -3.28694 -0.960066
lowerback 6.59901 -0.934432 -3.65993
upperback 0.985611 -1.44398 2.1301
thorax -2.53543 -0.681181 4.39051
lowerneck -8.04862 -6.97194 -7.38267
upperneck 9.07565 -8.78658 3.0214
head 4.493 -4.41464 1.53323
rclavicle 5.76476e-015 1.23246e-014
rhumerus -25.5796 -21.3369 -79.8231
rradius 18.5892
rwrist 12.8126
rhand -8.11076 -35.7753
rfingers 7.12502
rthumb 17.8023 -64.9805
lclavicle 5.76476e-015 1.23246e-014
lhumerus -49.6313 39.7402 60.7365
lradius 47.309
lwrist 164.378
lhand -28.4402 7.115
lfingers 7.12502
lthumb -1.81106 37.0871
rfemur -3.87822 -0.590047 19.1424
rtibia 18.5798
rfoot -16.7738 -8.28899
rtoes 9.55136
lfemur 2.11968 3.02037 -18.4303
ltibia 8.94956
lfoot -12.7917 1.9662
ltoes -30.2507
25
root -0.123245 18.0378 -27.496 2.48241 -3.21047 -1.01609
lowerback 6.64059 -0.9169 -3.63462
upperback 0.995503 -1.41868 2.17789
thorax -2.55041 -0.668455 4.42496
lowerneck -8.01124 -6.96084 -7.40454
upperneck 9.01198 -8.7692 3.00952
head 4.46679 -4.40744 1.53671
rclavicle -4.96962e-017 -1.17283e-014
rhumerus -25.2969 -20.8161 -80.3877
rradius 18.4952
rwrist 13.4012
rhand -8.40562 -36.1916
rfingers 7.12502
rthumb 17.5185 -65.4223
lclavicle -4.96962e-017 -1.17283e-014
lhumerus -48.6655 38.8581 62.6335
lradius 48.2109
lwrist 165.288
lhand -28.2944 7.42612
lfingers 7.12502
lthumb -1.67021 37.3993
rfemur -3.83625 -0.564036 19.2169
rtibia 18.4969
rfoot -16.7153 -8.39859
rtoes 9.4604
lfemur 2.06191 2.94892 -18.3731
ltibia 9.04675
lfoot -12.7552 2.10285
ltoes -30.2494
26
root -0.122196 18.0357 -27.4965 2.5149 -3.1092 -1.00004
lowerback 6.65061 -0.921795 -3.67762
upperback 0.989881 -1.42762 2.21214
thorax -2.55896 -0.672116 4.48629
lowerneck -8.03338 -6.97512 -7.41668
upperneck 9.03723 -8.77755 2.93625
head 4.47595 -4.41583 1.51442
rclavicle -4.17448e-015 -1.98785e-014
rhumerus -24.949 -20.4061 -80.8811
rradius 18.574
rwrist 13.0832
rhand -8.05931 -36.3957
rfingers 7.12502
rthumb 17.8518 -65.5964
lclavicle -4.17448e-015 -1.98785e-014
lhumerus -47.7385 37.8851 64.4522
lradius 49.0929
lwrist 166.073
lhand -28.2832 7.4309
lfingers 7.12502
lthumb -1.65941 37.4042
rfemur -3.83424 -0.591533 19.1918
rtibia 18.4213
rfoot -16.6515 -8.47216
rtoes 9.39592
lfemur 1.96007 2.83843 -18.4183
ltibia 9.15822
lfoot -12.7416 2.21777
ltoes -30.1623
27
root -0.119958 18.034 -27.497 2.54127 -3.02016 -0.852114
lowerback 6.66484 -0.909686 -3.79292
upperback 0.977632 -1.42116 2.17782
thorax -2.57829 -0.667201 4.51597
lowerneck -7.93108 -7.0063 -7.52712
upperneck 8.97503 -8.82344 3.03399
head 4.45174 -4.43743 1.56218
rclavicle 1.0312e-014 1.35174e-014
rhumerus -24.687 -19.819 -81.4418
rradius 18.6249
rwrist 13.0284
rhand -8.19982 -36.3804
rfingers 7.12502
rthumb 17.7166 -65.5933
lclavicle 1.0312e-014 1.35174e-014
lhumerus -46.7892 36.8022 66.2186
lradius 49.9359
lwrist 166.771
lhand -28.3232 7.48867
lfingers 7.12502
lthumb -1.69803 37.4617
rfemur -3.85559 -0.680621 18.9851
rtibia 18.4066
rfoot -16.6368 -8.44657
rtoes 9.49213
lfemur 1.86114 2.77871 -18.637
ltibia 9.25855
lfoot -12.7729 2.2146
ltoes -30.2322
